<svg id="Capa_1" enable-background="new 0 0 512 512" height="512" viewBox="0 0 512 512" width="512" xmlns="http://www.w3.org/2000/svg"><g><g><path clip-rule="evenodd" d="m45.149 148c-20.976 11.704-35.149 34.092-35.149 59.796 0 24.626 13.011 46.192 32.513 58.236-10.063 27.035 21.146 64.868 68.172 64.981h.198 66.783v-161.73c-11.593-.595-20.891-10.23-20.891-21.963 0-12.129 9.921-22.019 22.025-22.019h141.559c-7.597-21.793-24.548-39.193-46.005-47.411-11.14-38.909-46.969-67.39-89.46-67.39s-78.32 28.481-89.431 67.39c-28.544 10.939-49.067 38.059-50.314 70.11z" fill="#d5ea7a" fill-rule="evenodd"/></g><g><path clip-rule="evenodd" d="m178.8 125.301c-12.104 0-22.025 9.89-22.025 22.019 0 11.732 9.297 21.368 20.891 21.963.368.028.765.028 1.134.028h280.454c.397 0 .765 0 1.134-.028 11.593-.595 20.891-10.23 20.891-21.963 0-12.129-9.893-22.019-22.025-22.019h-138.895z" fill="#89a7bc" fill-rule="evenodd"/></g><g><path clip-rule="evenodd" d="m177.666 169.283v161.73h282.722v-161.73c-.368.028-.737.028-1.134.028h-280.454c-.369 0-.765 0-1.134-.028zm46.346 62.09h49.435v49.451h-49.435z" fill="#ffcd69" fill-rule="evenodd"/></g><g><path clip-rule="evenodd" d="m224.012 231.373h49.435v49.451h-49.435z" fill="#89a7bc" fill-rule="evenodd"/></g><g><path clip-rule="evenodd" d="m110.883 331.013h-.198zm208.881 0h-142.098-66.783-.198-77.555c-12.727 0-23.13 9.494-23.13 21.112s10.403 21.112 23.13 21.112h111.711 65.649 109.273v-42.224z" fill="#ffe6b4" fill-rule="evenodd"/></g><g><path clip-rule="evenodd" d="m319.764 331.013h79.68v42.225h-79.68z" fill="#ffe6b4" fill-rule="evenodd"/></g><g><path clip-rule="evenodd" d="m144.842 373.238c-1.729 55.459-7.71 102.389-28.629 128.262h61.454 61.454c-20.919-25.873-26.9-72.803-28.629-128.262z" fill="#ffcd69" fill-rule="evenodd"/></g><g><path clip-rule="evenodd" d="m399.444 331.013v42.225h60.944 20.466c11.622 0 21.146-9.494 21.146-21.112s-9.524-21.112-21.146-21.112h-20.466-60.944z" fill="#ffe6b4" fill-rule="evenodd"/></g><g><path clip-rule="evenodd" d="m319.764 231.373h76.902v99.64h-76.902z" fill="#89a7bc" fill-rule="evenodd"/></g><g><path d="m134.778 99.52c.919.263 1.845.389 2.755.389 4.351 0 8.354-2.862 9.609-7.253 4.782-16.722 20.307-28.4 37.752-28.4 5.522 0 10-4.478 10-10s-4.478-10-10-10c-26.325 0-49.757 17.642-56.98 42.9-1.518 5.31 1.555 10.845 6.864 12.364z"/><path d="m319.027 159.312c-5.522 0-10 4.478-10 10s4.478 10 10 10h.057c5.522 0 9.972-4.478 9.972-10s-4.506-10-10.029-10z"/><path d="m480.854 321.013h-10.465v-143.699c12.186-4.529 20.891-16.264 20.891-29.994 0-17.655-14.366-32.02-32.025-32.02h-132.132c-8.827-19.944-24.655-35.904-44.621-44.852-14.052-41.424-53.501-69.948-97.607-69.948-44.119 0-83.558 28.527-97.584 69.951-28.883 12.948-48.598 40.268-51.771 71.683-22.054 14.428-35.54 39.105-35.54 65.662 0 24.89 11.504 47.768 31.116 62.548-1.826 11.841 1.537 24.758 9.7 36.502 3.644 5.243 8.044 9.991 13.037 14.167h-20.723c-18.268 0-33.13 13.957-33.13 31.113 0 17.155 14.862 31.112 33.13 31.112h101.343c-1.788 43.144-6.86 88.258-26.037 111.975-2.423 2.996-2.908 7.118-1.248 10.596s5.171 5.691 9.024 5.691h122.908c3.854 0 7.364-2.214 9.024-5.691s1.175-7.6-1.248-10.596c-19.177-23.719-24.249-68.831-26.037-111.975h88.904v118.262c0 5.522 4.478 10 10 10h76.903c5.522 0 10-4.478 10-10v-118.262h43.722v118.262c0 5.522 4.478 10 10 10s10-4.478 10-10v-118.262h10.465c17.174 0 31.146-13.957 31.146-31.112.001-17.156-13.972-31.113-31.145-31.113zm-428.968-51.495c1.661-4.469-.062-9.488-4.118-11.993-17.388-10.739-27.768-29.329-27.768-49.729 0-21.165 11.504-40.73 30.021-51.063 3.045-1.698 4.984-4.86 5.12-8.344 1.064-27.341 18.296-51.349 43.9-61.161 2.937-1.126 5.173-3.567 6.036-6.592 10.112-35.407 42.934-60.136 79.818-60.136 36.874 0 69.707 24.731 79.846 60.142.865 3.022 3.101 5.462 6.036 6.587 14.221 5.446 26.031 15.358 33.833 28.072h-125.81c-17.658 0-32.024 14.364-32.024 32.02 0 13.73 8.705 25.465 20.891 29.994v143.698h-56.783c-26.441 0-45.048-13.215-53.644-25.582-6.207-8.928-8.158-18.373-5.354-25.913zm169.15 221.982h-86.739c14.397-28.881 18.609-69.549 20.191-108.262h46.356c1.582 38.713 5.795 79.38 20.192 108.262zm88.728-128.262h-276.634c-7.117 0-13.13-5.089-13.13-11.112 0-6.024 6.013-11.113 13.13-11.113h276.634zm76.903 128.262h-56.903v-22.82h56.903zm0-42.82h-56.903v-22.792h56.903zm0-42.792h-56.903v-22.649h56.903zm0-42.65h-56.903v-22.226h56.903zm0-42.225h-56.903v-79.64h56.903zm10-99.64h-76.903c-5.522 0-10 4.478-10 10v89.64h-122.098v-141.701h86.461c5.522 0 10-4.478 10-10s-4.478-10-10-10h-95.327c-6.63 0-12.024-5.379-12.024-11.991 0-6.628 5.395-12.02 12.024-12.02h280.454c6.631 0 12.025 5.392 12.025 12.02 0 6.612-5.395 11.991-12.025 11.991h-95.327c-5.522 0-10 4.478-10 10s4.478 10 10 10h86.462v141.701h-43.722v-89.64c0-5.522-4.478-10-10-10zm84.187 141.865h-74.187v-22.226h74.187c6.146 0 11.146 4.985 11.146 11.113s-5 11.113-11.146 11.113z"/><path d="m273.447 221.373h-49.436c-5.522 0-10 4.478-10 10v49.452c0 5.522 4.478 10 10 10h49.436c5.522 0 10-4.478 10-10v-49.452c0-5.522-4.477-10-10-10zm-10 49.452h-29.436v-29.452h29.436z"/></g></g></svg>